<svg width="719" height="969" viewBox="0 0 719 969" fill="none" xmlns="http://www.w3.org/2000/svg">
<path d="M328.331 0.832819C335.775 1.81696 347.517 5.07219 355.566 8.47884C372.936 15.7463 392.726 30.2056 405.073 44.5892L409.067 49.2828L409.491 46.6332C409.673 45.1191 409.794 38.6844 409.673 32.1739C409.551 25.7391 409.551 20.4399 409.673 20.4399C410.701 20.4399 422.866 29.2972 429.1 34.445C454.459 55.7933 474.431 85.6203 488.775 123.85C494.766 139.824 500.697 161.626 503.118 176.767L503.966 182.066L526.056 181.839L548.207 181.688L575.624 211.666L603.1 241.569L604.856 248.988L606.611 256.407L621.197 264.961C645.526 279.269 688.436 306.144 698.907 313.562C707.198 319.467 709.014 321.133 710.587 324.009C713.553 329.536 715.248 334.078 717.003 341.194C718.395 347.023 718.576 349.219 718.637 358.833L718.697 369.81L702.659 408.343C691.886 434.233 686.197 447.027 685.41 447.481C684.744 447.784 678.874 448.617 672.398 449.298C646.132 452.175 598.501 457.853 598.259 458.155C598.077 458.382 597.29 462.546 596.504 467.543C595.656 472.539 594.809 477.535 594.627 478.595L594.204 480.564L632.998 480.185L671.853 479.731L671.127 481.926C668.706 489.875 659.083 524.774 659.083 525.683C659.083 526.288 661.807 536.357 665.196 548.091C668.585 559.825 671.248 569.515 671.127 569.59C671.006 569.742 663.985 570.423 655.512 571.104C647.039 571.786 640.019 572.391 639.958 572.543C639.898 572.619 637.477 581.854 634.572 593.134C631.667 604.338 629.185 613.725 629.064 613.877C628.943 614.028 625.796 610.697 622.044 606.458C618.291 602.294 615.023 598.812 614.781 598.812C614.6 598.812 610.121 606.155 604.916 615.164C597.109 628.563 595.233 631.288 594.627 630.456C594.204 629.926 586.82 619.176 578.165 606.685L562.43 583.823L562.732 579.962L563.035 576.101H554.32H545.605L511.833 532.496C493.314 508.498 478.123 488.512 478.123 488.058C478.123 487.528 480.423 475.643 483.207 461.562L488.23 435.974L486.354 434.99C485.325 434.46 479.696 431.886 473.826 429.237L463.174 424.467L456.638 396.609C453.067 381.317 450.283 368.144 450.404 367.387C450.585 366.63 456.516 349.749 463.537 329.839C470.618 309.853 476.307 293.501 476.186 293.35C475.157 292.29 448.285 273.213 448.164 273.44C447.983 273.591 449.375 280.859 451.191 289.565L454.519 305.387L442.052 340.134L429.645 374.806L439.51 408.646L449.375 442.485L457.848 446.421C462.508 448.541 466.563 450.434 466.866 450.585C467.168 450.736 465.413 460.881 462.992 473.069C459.3 491.616 458.695 495.553 459.3 496.764C459.724 497.597 478.425 523.411 500.94 554.223C540.763 608.805 541.852 610.167 543.728 609.789C544.757 609.562 547.36 609.032 549.539 608.653L553.473 607.896L556.135 611.454C564.427 622.734 581.131 650.668 589.604 667.399C613.631 714.789 627.43 760.287 632.756 809.267C634.088 821.53 634.572 850.298 633.725 864.151C631.485 898.521 623.436 933.495 611.452 960.37C608.003 968.092 607.034 969.53 607.034 966.88C607.034 964.382 602.314 942.201 599.893 933.344C589.423 895.038 571.024 858.246 547.42 828.419L538.342 816.988L541.247 811.386C547.905 798.592 553.049 783.603 556.196 767.781C559.343 751.732 560.13 743.329 560.069 723.722C560.069 706.235 559.646 699.875 557.588 686.249L556.559 679.436L554.925 689.656C548.389 730.838 535.376 769.749 516.796 803.967C511.107 814.414 502.392 828.344 501.726 828.041C500.94 827.662 461.177 767.705 461.177 766.873C461.177 766.494 462.75 763.466 464.687 760.135C479.757 734.775 490.832 703.509 495.432 673.077C496.703 665.052 497.066 659.753 497.308 648.776L497.55 634.771L492.951 648.019C469.044 717.363 439.933 768.008 408.462 795.11C403.076 799.804 391.455 807.374 388.974 807.904C388.066 808.131 386.311 802.983 378.262 777.093C372.936 760.059 368.578 745.752 368.578 745.297C368.578 744.843 369.849 743.102 371.423 741.512C383.043 729.4 400.171 707.37 410.217 691.624C427.284 664.976 439.57 636.588 444.533 612.06C445.925 605.019 447.559 591.317 447.015 590.712C446.893 590.484 444.957 594.875 442.778 600.402C421.898 653.015 389.095 697.15 348.727 726.977C325.91 743.859 298.554 757.334 274.164 763.466C265.146 765.813 263.27 765.889 263.27 763.996C263.27 763.163 261.757 745.07 259.941 723.646C258.126 702.298 256.734 684.735 256.794 684.659C256.855 684.583 259.215 683.069 261.999 681.328C276.222 672.471 298.978 655.816 313.019 644.007C333.536 626.822 347.093 612.968 362.586 593.588C374.509 578.599 381.348 568.531 388.127 555.661C391.819 548.696 398.839 532.042 398.839 530.3C398.839 529.922 394.421 535.07 388.974 541.732C359.621 577.842 330.328 606.004 296.255 630.986C255.947 660.586 208.316 682.842 170.066 690.034C161.775 691.624 161.956 691.624 163.046 689.05C164.498 685.492 166.98 671.563 167.888 661.645C169.461 645.294 170.127 632.424 170.49 610.016C170.793 591.014 170.974 588.213 171.822 587.835C172.366 587.683 176.179 586.624 180.355 585.564C247.595 568.076 306.059 537.871 345.64 500.322C358.108 488.437 369.91 474.129 378.08 461.032C381.409 455.657 385.766 447.406 385.222 447.406C385.04 447.406 381.711 450.585 377.777 454.446C321.613 510.239 260.91 542.791 187.618 556.342C166.859 560.203 147.976 562.323 106.821 565.502C52.5934 569.666 31.3502 573.527 9.38076 582.914C-1.029 587.456 -0.121171 587.229 0.302482 584.731C1.08927 580.189 7.44406 565.578 12.0437 557.932C23.3613 538.931 43.9993 512.964 66.0292 489.951L71.2341 484.5H83.8832C99.2558 484.5 132.422 483.289 147.673 482.229C227.925 476.551 304.062 458.231 341.041 435.672C348.001 431.432 353.932 426.587 353.266 425.754C353.145 425.603 351.45 426.36 349.453 427.42C334.746 435.596 313.927 442.333 290.202 446.573C257.763 452.402 240.272 453.386 155.602 454.219C74.0787 454.976 56.1037 455.809 32.8027 459.594C21.7878 461.335 13.1331 463.379 5.8705 465.877C2.96544 466.861 0.605091 467.467 0.605091 467.164C0.605091 466.861 3.08649 461.032 6.11258 454.143C16.3408 431.054 28.2031 410.008 40.4285 393.202C48.2358 382.528 53.6223 376.32 62.7005 367.842C74.0181 357.243 80.494 353.609 94.1114 350.127C109.423 346.266 117.533 345.585 151.607 345.585C182.05 345.585 190.704 345.963 220.3 348.689C250.5 351.414 294.802 357.167 330.449 362.997C335.533 363.829 310.78 354.594 293.228 349.067C220.663 326.432 137.748 320.679 56.8904 332.791C42.2441 334.911 14.4041 340.664 8.59398 342.632C7.74667 342.935 7.2625 342.784 7.2625 342.103C7.2625 340.286 14.0409 319.846 17.6723 310.837C25.7217 290.776 34.0737 275.938 46.1781 260.495C69.0553 231.273 97.7427 214.089 134.358 207.729C145.071 205.837 171.035 205.837 181.505 207.729C185.681 208.411 189.252 209.168 189.554 209.395C189.797 209.622 190.039 209.546 190.039 209.168C190.039 208.259 186.589 205.534 182.655 203.263C178.237 200.765 167.948 197.888 159.536 196.904C155.904 196.45 145.676 196.071 136.84 196.071C121.407 196.071 114.447 196.525 99.3768 198.418L92.5984 199.251L75.3496 187.29C65.8477 180.703 58.1009 175.101 58.1009 174.799C58.1009 173.663 70.6289 161.323 78.4968 154.737C109.121 128.847 147.734 114.16 194.88 110.451C205.472 109.618 227.925 109.997 231.012 110.981C232.949 111.662 232.767 110.375 230.709 108.861C224.778 104.47 203.474 99.9282 178.539 97.6571L169.159 96.7487L152.031 84.2577C142.65 77.293 134.964 71.4638 134.964 71.161C134.964 70.2526 147.492 64.9534 156.449 62.0767C188.162 51.9324 230.044 52.1595 271.562 62.8337C276.464 64.0449 280.519 64.9534 280.64 64.8777C281.245 64.0449 278.28 60.8654 274.769 58.67C269.383 55.2634 260.728 52.0838 247.776 48.8286L237.246 46.1033L228.773 38.0031C224.173 33.6123 220.481 29.8271 220.602 29.6757C221.086 29.0701 230.044 26.4962 236.338 25.2092C244.69 23.4681 276.645 23.2409 286.874 24.8307C303.759 27.4803 323.126 31.7197 330.57 34.5207C333.354 35.5806 330.752 27.3289 325.366 18.0174C323.852 15.3678 320.584 10.2957 318.103 6.58626L313.503 8.48884e-05L318.466 0.075788C321.25 0.151491 325.668 0.454304 328.331 0.832819ZM391.819 118.703C390.669 119.687 389.942 122.109 388.853 128.62C386.674 142.246 386.008 149.362 385.706 164.654C385.222 188.349 386.735 202.884 391.698 221.432C394.239 231.122 399.928 245.657 403.378 251.486L405.497 255.12H415.483C424.621 255.12 426.74 254.665 424.864 253.227C423.653 252.319 419.295 240.509 417.298 232.863C414.756 223.173 412.517 209.546 411.004 194.557C409.975 184.489 408.523 164.579 408.523 160.264C408.523 159.279 412.638 162.383 424.379 172.376C459.482 202.127 456.093 199.478 457.787 198.039C459.724 196.525 459.785 193.952 458.151 189.485C451.069 169.802 416.148 127.711 400.292 119.687C397.266 118.173 393.029 117.643 391.819 118.703ZM553.291 267.005C567.393 287.672 588.515 317.196 588.878 316.666C591.238 313.638 606.913 287.218 606.55 286.839C606.308 286.536 597.411 283.054 586.76 279.042C576.108 274.954 564.124 270.336 560.13 268.746C556.135 267.156 552.746 265.794 552.625 265.794C552.504 265.718 552.807 266.324 553.291 267.005ZM672.398 353.079C672.398 353.382 685.108 394.868 686.439 398.956C687.044 400.697 687.771 399.107 694.489 381.922C698.604 371.475 701.872 362.921 701.872 362.845C701.751 362.694 673.427 352.928 672.822 352.852C672.58 352.777 672.398 352.928 672.398 353.079Z" fill="white"/>
</svg>
