<svg  xmlns="http://www.w3.org/2000/svg" version="1.0" width="1188.000000pt" height="1280.000000pt" viewBox="0 0 1188.000000 1280.000000" preserveAspectRatio="xMidYMid meet">
    <path fill="#002A41" d="M288.6,348.7c3.8,2.6,8,3.4,10,6.8c0.1,0.4,0.2,0.8,0.3,1c0.1-0.1,0.1-0.2,0.2-0.3c0.1,0.1,0.1,0.2,0.2,0.3
		c0.1-0.2,0.2-0.6,0.3-1c2.1-3.4,4.8-4.4,8.7-6.9c1.6-1.2,9.6-4.2,4.5-8.9c0,0-8.3-3.4-13.6,1c-5.1-3.6-13.6-1-13.6-1
		C280.7,344.7,286.9,347.5,288.6,348.7z"/>
    <path fill="#002A41" d="M230.6,358.5c-0.1,0.5-0.2,1.1-0.3,1.7c0,0,0,0,0,0L230.6,358.5z"/>
    <path fill="#002A41" d="M374.5,386.1c0.2,14.2-5.1,27.3-8.4,40.9c-0.5-1.6-1.1-3.3-1.7-4.9c-0.8-2.2-3.6-1.7-3.9,0.5
		c-1.9,14.8-3,30.8-8,45c5-6.3,9.2-12.4,11.1-16.9c0.5-2.7,0.7-4.8,0.9-6c0,0.7,0.1,1.4,0.3,2.1c0,0,0-0.1,0-0.1
		c1.1-12.1,21-45.9,21-45.9c3.4-22.3-12.2-36.9-12.7-37.5c2.1,0.4,3.3-1.9,3.3-1.9c-4.1-5.2-1.5-14-1.5-14c2.8-8.1,0-24.3,0-24.3
		c6.5,3.4,3.1-2.7,3.1-2.7c-4.5-14.8-17.3-25.1-17.3-25.1c0,0,0,0,0,0c-1.1-1-2.3-1.9-3.6-2.7c-0.8-0.5-1.5,0.7-0.7,1.2
		c6.3,4.3,9.3,10.6,10.6,17.6c-1.6-0.9-3.5-1.4-5.7-1.5c-1-0.1-1.9,1.3-1.3,2.2c6.5,8.6,8.6,16.3,6.8,26.9c-0.5,3.1-0.6,5.9-0.1,8.6
		c-0.4-0.4-0.9-0.8-1.3-1.3c-0.9-0.9-2.4-0.2-2.4,1c0.2,12.1,4.1,24.2-3.2,34.7c-1.2-2.4-2.7-4.6-4.6-6.6c-0.9-1-2.3-0.1-2.4,1
		c-0.2,1.9-0.6,3.6-1.1,5.3c-0.4,1.1-0.9,2.2-1.4,3.4c-2.7,5.8-6.9,10.9-9.6,16.8c-1.3,2.9-3,5.9-3.5,9c-0.3,2.2-0.5,4.4-1,6.6
		c-2.3-2.5-3.3-5.7-3.6-9c-0.1-0.9-0.9-1.8-2-1.5c-3.1,1.1-4.7,3.4-5.8,6.4c-1.7,4.3-4.1,7.9-6.4,11.6c-0.5-1-1.1-1.9-1.8-2.9
		c-0.7-1-2.5-1-2.8,0.4c-1.8,8.9-7.6,14.6-11,22.6c-1.6,3.7-2.5,7.5-2.9,11.3c-4.5-12.3-8.1-26.7-6.2-39.1c0.2-1.5-1.3-2.4-2.5-1.4
		c-5.3,4.2-11.3,10.4-14.2,17.2c-0.7-3.4-1-7-1-10.4c0-1.7,0.2-3.4-0.7-5c-1.9-3.2-5-0.4-7.3,1.3c0-4.5,1.3-8.8-3.7-11.1
		c-3.3-1.5-7.1-0.9-10.3-2.9c-3.7-2.3-4.9-5.5-5.5-9.6c-1.2-7.7-3.3-13.5-7.4-20.2c-2.6-4.2-6.3-9.5-5.7-14.8
		c0.5-4.4,2.5-8.5,3.9-12.7c0.3-1.1-0.8-2.3-1.9-1.9c-2.4,0.9-4.1,2.1-5.6,3.8c-2.5-11.7,6.8-24,6.5-35.6c-0.1-4.2-3.2-7.7-2-12.1
		c0.5-1.8,1.1-3.4,1.8-5.1c-0.2,2.3-0.2,4.7,0.2,7c1.1,6.9,2.8,7,1.9,14c-0.9,7.2-6.8,12.8-6.8,28c6.5-6.5,8.1-1,7.7,1.5
		c-0.3,4.9-6,10.2-1.2,20.8c2.1-4.2,5.9-10.6,11.5-12c-1.4,5.2-4.2,11.5-2.4,16.8c1-2.4,3.1-4.5,3.8-7c0,10.8-6.3,18.9-0.3,29.4
		c3.8,5.9,6.3,6.6,12.2,7.7c7,1.4,6.3,4.5,7.3,10.8c5.9-3.5,6.3,5.9,6.6,9.4c4.2-4.2,3.5-11.9,6.6-17.1c2.4-3.5,5.6-3.1,7.7-5.6
		c3.8-3.8,0-2.4-3.1-3.8c-3.1-1.7-4.5-4.2-7.7-5.9c-2.4-1.4-5.2-1-7.7-2.4c-7-4.2-4.9-10.1-7-16.4c-6.3,6.3-1-3.8-0.2-10.1
		c1.5,3.7,2.5,7.4,3.4,11.5c0.3,1.1,0.4,2.2,1,3.2v0c0.4,4.8,5.7,9.3,9.5,12.1c2.7,2,7.2,4.7,11.4,5.6c0,0,5.1,1.1,3.9,11.7v0
		c-4.2,25.3,2.9,28.2,2.3,23.3c-1.3-11.3,3.7-17.7,4.8-19.8c3.8-5.6,4.4,4.9,6.1,8.4c2.1-3.5,2.8-6,5.6-9.5c2,4.5,4.6,0.6,3.6,11.2
		c6.3-6.3,2.1-11.9,6.3-18.5c2.2-3.5,3.1-9.8,3.5-14c1.4,1.4,1.4,3.8,1.7,5.9c3.8-5.9,3.8-11.5,5.9-17.8c1.1-3.1,1.4-6.3,5.6-2.4
		c2.1,2.1,2.4,7,2.4,9.4c1.4-4.5,2.8-9.4,2.4-14.3c-0.7-6.6-1.1-7.3,1.4-13.3c1.4-3.1-1.5-9.7,1.3-11.4c4.2-2.8,9.6,8.4,9.2,5.5
		c-2.6-17.5-9.8-17.1-10.8-26.9c-0.7-4.9,6.7-4.2,5.2-8.6c-1.6-4.9-0.2-9,8.4-5.1c-5.9-12.6-15-12.6-18.2-15.4
		c-1.7-1.4-7.6-6-11.8-9.6c-1.8-1.8-3.5-3.5-5.3-5.1c0,0,0,0,0,0c3.5,5.8,8.1,11.3,12.6,16.4c2.7,3.1,7.6,7.6,7.1,12.2
		c-0.4,4.1-3,6.9-4.6,10.5c-1.5,3.4-0.6,7.2,0.2,10.6c2.3,9.2-0.4,14.5-6.1,21.6c-3.2,4-6.2,8-8,12.8c-1.3,3.5-3.2,4.2-4,7.8
		c-0.8,3.3-1.6,2.9-4.2,1.5c-3.9-2.1-6.5-0.2-10.8-1.2c-6-1.4-8.2-4.2-9-10.5c0-0.1-0.1-0.3-0.1-0.4c-0.1-0.3-0.4-0.4-0.7-0.4
		c-0.3,0-0.6,0.1-0.7,0.4c-0.1,0.1-0.1,0.2-0.1,0.4c-0.8,7.1-4.2,8.5-10.7,9.8c-4.5,0.8-6,0.3-10,2.3c-3.5,1.7-3.2-3.8-3.8-6.2
		c-0.6-2.3-2.6-1.4-3.6-3.7c-2.3-5.4-5.6-9.6-9.2-14.2c-2.8-3.5-6.5-8-6.1-12.8c0.2-2.6,0.8-4.9,1.3-7.3c-0.2,3.9-0.7,6.8,0.7,10.9
		c1.4,4,5.2,7.8,7.6,10.8c0.9,1.4,5.2,5.8,6.9,12.2c3.7-4.9-7-12.3-4.2-16.8c3-4.7,13.2,4.4,9.2-0.6c-23.3-28.9-13.5-39.6-13.5-39.6
		c-1.1-1.8-1.3-3.8-1.1-5.8c0-0.2,0.1-0.4,0.1-0.5c0-0.2,0.1-0.4,0.1-0.7c0.7-2.1,3.9-6.5,17-12.5c0,0-4.9-1.1-8.6,1.9
		c0,0-2.2,0.2,1.1-8.8c0,0,0-0.1,0.1-0.1c0,0,0,0,0,0c0,0,0,0-0.1,0.1c-0.3,0.2-1.9,1.1-3.8,3.6c-5.8,5.5-12,11.8-15.8,18.2
		c-2.5,4.2-2.7,7.9-1,11.9c-2-2.6-3.6-5.3-2.3-9.2c2.4-7.3,21.9-27,23.7-27c4.2,0,0.1,5.3,1.2,8.4c0,0,7.2-7.4,15.4-8.4
		c8.2-1-6.5-4.7-10.5-0.7c-1.5,1.5,0.3-4.5-2.8-6.5c-3,0.1-7.4,1-11.6,5.1c0,0-1-4.2,3.2-7.3c-6.2,0-10.5,3.7-14.1,6.6
		c2.3-3.1,3.5-5,2-4.1c-1.7,1-5.4,2.3-7.1,3.4c-6,3.8-7.9,9.1-9.6,15.7c-1.6,6.4-6.9,13.8-4.9,20.6c1.5,5.3,1.8,9.3,0.1,14.6
		c-1.2,3.7-2.1,7.5-2.9,11.3c-1.3,6.3-3,13.5-0.4,19.6c0.5,1.3,2.2,1.7,3,0.4c0.8-1.2,1.5-2.2,2.5-3.1c-2.1,6.2-3.9,11.5-0.7,18.4
		c4,8.7,9.2,15.5,10.7,25.2c0.8,5.1,2.1,10.6,7.3,13.1c2.1,1,12.4,2.8,12.7,4.7c0.4,3.1-0.1,6.2,0.4,9.3c0.1,0.7,1.1,1.3,1.8,1
		c1.5-0.6,2.2-0.9,3.4-2c3.4-3.2,2.9,2.2,3,3.1c0.6,5.1,0.7,10.1,2,15.1c0.4,1.3,2.5,1.5,2.8,0c1.3-6.8,6.7-13.6,12.2-18.6
		c-0.8,14.8,5.2,29,9.2,43c0.4,1.5,2.6,1.2,2.7-0.4c0.3-9.6,2.7-15.9,7.8-23.9c2.4-3.8,4.3-7.6,5.6-11.7c0.1,0.8,0.1,1.7-0.1,2.6
		c-1,2,2,3.7,2.9,1.7c1.1-2.3,2.7-4.4,4.1-6.5c-0.8,5.2-1,10.6-2,14.2c-2.8,8.9-6.1,17.7-9.3,26.6c-1.4-3.7-2-14.4-4.2-11.2
		c-3.7,5.4,0.2,14.8-6.8,20.4c-1.8-7.1-6.9-13.1-9.5-20c-10-13.5,1.2-21.1-4.5-27.6c-1.9-2.1-6.5,15.4-10,15
		c-4.2-0.2-5.6-19.8-6.3-18.3c-1.2,1.5-3.5,6.8-4.9,8.2c-1.4-4.2-0.2-5.8-4.4-8.6c-0.8,2.7-3.8,6.9-4.8,9.9
		c-2.9-4.5-2.2-10.8,2.4-17.8c-9.1-0.3-11.2-6.6-14.3-13.6c-2.4-4.8-7.2-31.6-9.6-21.8c-0.2,1.2,1.9,4.3-2.9,5.9
		c-3.5-4.9-3.1-15.1-2.1-22.8c0.6-1.6,0.8-2.9,0.6-3.7l-0.3,2.1c0.1-0.7,0.2-1.5,0.3-2.1c-0.4-1.4-1.9-1.8-3.9-1.2
		c-5.1,1.4-9,7.8-10.1,12.1c-3.4,12.5-5.1,23.5-5.5,33.1c-1.7-17-0.9-37.3,13-47.6c1-0.7,1.2-1.6,0.7-2.7c-6.6-15.2,6.3-25.1,7-39.5
		c0.2-4.2-0.4-8.4-0.4-12.6c0.1-4.7,1.4-8.5,2.9-12.8c1-2.8,1.5-5.3,0.9-8.2c-1.5-6.7-5-15.5,0.8-21.2c4-3.9,9.4-5.7,14.8-6.8
		c12-2.4,23.9-2.3,32.9-11.7c5.5-5.7,11.1-7.5,17.9-2.8c3.9,2.7,7.6,6.1,11.9,8.2c8.9,4.3,19.6,5.2,28.9,8.8
		c4.7,1.8,8.9,2.9,13.9,3.8c2.8,0.5,13.4,2.5,11.1,7.4c-2.8,6-5.1,13.6-9.3,18.8c-1,1.3,0.2,3,1.4,2.9v0l0,0c0.3,0,0.6-0.2,0.9-0.6
		c0.1-0.1,0.2-0.2,0.3-0.3c3.6-2.8,14.3-11.3,14.5-14.6c0.2-4-5.2-11-5.2-11.1c-3.5-5-14.1-5.8-18.4-6.7c-6.8-1.4-13.2-4.6-19.9-6.5
		c-5.1-1.4-11.8-2-16.4-4.7c-7.3-4.2-18-16.6-27.5-10.6c-2.5,1.6-4.4,3.6-6.4,5.6c-3.8,3.9-8.3,6.6-13.7,8
		c-7.4,1.9-15.3,1.9-22.6,4.4c-9.6,3.3-16.9,10.1-14.6,21.1c0.7,3.5,2.3,7.5,2.2,11.1c-0.1,2.9-1.5,5.6-2.6,8.2
		c-3.4,8.6,0.1,17.6-2.6,26.3c-4,13.1-11.8,22.9-6.9,36.5c-2.5,2.1-4.6,4.5-6.4,7c-0.4-0.3-0.8-0.6-1.3-1v0
		c-0.4,1.3-0.7,2.5-1.1,3.7c0.2,0.1,0.3,0.2,0.5,0.3c-0.5,0.9-0.9,1.9-1.3,2.8c-13.3,53.4,24.5,72.6,24.5,72.6l7.7-9.4
		c-1.3,25.5,15.3,49,17.9,52.5c0.1-0.4,0.2-0.8,0.3-1.2c2.8-9.9,21.5-18.7,21.5-18.7c-3.1,3.1-4.9,7.2-6,11.6
		c0.3-0.3,0.5-0.4,0.5-0.4c0.4,21.6,7.5,32.2,11.9,36.6c2,1.7,4.6,3.8,4.5,3.7c-1.3-14.7,4.3-15.5,5.4-17.6c0.9,2.8,2.9,4.4,4.8,7.7
		c0.9-5.6,7.2-30.3,23.1-32.2c-0.5,10.3-9.3,32.6,17-18.6c2.3,4.7,1.4,10.2,1.4,14.9c7.9-14.4,6.5-28.4,8.9-44.3
		c0.9,1.4,2.6,6,3.3,4.2c8.5-23.1,1.8-41.4-2.2-48.4c0-0.1,0.1-0.3,0.1-0.4c1.3,1.7,2.2,3.4,3,5.6c0.3,0.9,1.6,1.5,2.3,0.6
		c0.3-0.4,0.6-0.7,0.8-1.1c6,3.1,6.8,15.3,6.8,15.3c4.9-18.4-1.7-37.6-1.7-36.9c-0.2-3.9-0.7-8-0.7-12.2c0.4,0.4,0.9,0.8,1.3,1.2
		c-0.1,0.2-0.2,0.4-0.2,0.6C367.4,364.1,374.4,374.6,374.5,386.1z M366.5,436.5l-0.4-0.8c0.2,0.1,0.4,0.1,0.6,0.1
		C366.5,436.3,366.5,436.5,366.5,436.5z M323.8,377.8L323.8,377.8C323.8,377.8,323.8,377.8,323.8,377.8
		C323.8,377.8,323.8,377.8,323.8,377.8z M277.3,376.9c0.2,3,4.3,6.8,6.4,8.2c3.3,1.9,7.4,4.2,11.2,4.9c4,0.7,12.2-0.8,10.1-3
		c-1-1-8.8,0.2-12.2-1.8c-3.7-2.2-5.8-3.2-2.8-6.2c1.2-1,3.8,0.2,5.1-1c0.8-0.9-0.1-2.1,0.3-3.2c6.1,1.3,9.6-0.2,11.4-1.6
		c3.7,0.7,7.9,0.6,11.2,2.2c0.7,0.4,2.4,1.5,4,2.1c-1.5,4.2-5.5,7.9-9.2,10.1c-2.6,1.5-5.5,2.9-8.5,3.4c-2.1,0.3-3.6,0.2-5.4,1
		c-2.2-1-4.5-0.7-6.8-1.3c-2.9-0.8-5.7-2-8.2-3.8c-3.3-2.3-6.6-5.4-8.1-9.3C276.3,377.4,276.8,377.2,277.3,376.9z M295.7,475.2
		c0-0.5,0-1.1,0.1-1.6c0.2,0.2,0.5,0.5,0.8,0.7C296.2,474.6,295.9,474.9,295.7,475.2z M329.6,411.7c0.2-0.2,0.3-0.4,0.5-0.6
		c0,0.1,0.1,0.2,0.1,0.4C330.1,411.5,329.9,411.6,329.6,411.7z M332.9,418.1c0.3,0.5,0.7,1,1.1,1.5
		C333.6,419.2,333.2,418.6,332.9,418.1z"/>
    <path fill="#002A41" d="M361.8,263.9c-1.9-1.9-18.6-2.3-18.6-2.3c0.4,0.8,1,1.8,1.6,3c-2-2.6-4.2-5.1-7-7c-7.2-5-15.9-5.7-24.4-4.7
		c-3.5-1.1-7.9-2.8-10.3-4.3c-4.2-2.8-6.5-7.9-12.1-6.5c-1.1,0.3-2.3,1-3.7,2c2.7,0.9,6.2,2.8,7.7,6.9c0,0-9.1-6.8-16.3-1.2
		c5.8,0.7,4.9,2.6,6.8,4.4c-1.8,0.7-3.7,1.1-5.6,1.4c-2.8-0.4-5.7-0.6-8.6-0.6c-8.8-0.1-18.8,4-24.2,11.2c-0.2,0.3,0,0.7,0.2,0.9
		c2,1.5,3.6,0.6,5.7-0.3c2-0.9,3.9-2.8,5.8-4.1c0.5-0.4,1.1-0.7,1.6-0.9c3.9-1,7.9-1.7,11.9-2c5.6,0,11.2,1.3,16.6,2.9
		c3.1,0.9,6.4,2.1,9.5,0.5c10.4-5.3,23-8.4,34.3-3.5c5.4,2.4,9,8.1,12.3,12.7c2.9,4.2,5.6,7.1,9.4,10.4c0.7,0.6,1.8-0.2,1.3-1
		c-0.2-0.2-0.3-0.5-0.5-0.7C356.3,276.7,363.5,265.6,361.8,263.9z"/>
    <path fill="#002A41" d="M261.2,483.2c0,0-0.1-0.2-0.3-0.4C258.7,490.7,261.2,483.2,261.2,483.2z"/>
    <path fill="#002A41" d="M285.8,316.1c0.6-2.7-3.5-9.7-3.5-9.7l0,0.1c-0.3-5.6-9.4-12.4-12.5-10.4c-0.3,0,0.3,2.3,0,2.9
		c-0.5,0.9-2.5-0.6-2.7,0.9c-0.5,2.6,1.6,4,3.6,5.1c3.1,2,6.8,2.5,9.6,4.9c0.3,0.4,0.7,0.8,1.1,1.1
		C284.5,313.6,285.4,317.8,285.8,316.1z"/>
    <path fill="#002A41" d="M328.5,295.8c-1.3-0.9-3.5-0.3-5.6,1.1c-3.1,0.5-5.1,2.2-6.6,5.1c-0.1,0.1,0,0.3,0.1,0.4
		c-0.6,0.9-0.3,2.5,0.1,3.8c-1.1,2.1-3.3,6.6-2.9,8.6c0.4,1.7,1.3-2.5,4.6-5.1c0.2-0.2,0.5-0.4,0.7-0.6c7.5-1.4,10.1-4.1,10.9-5.9
		c0.1-0.1,0.3-0.2,0.4-0.3c-2.2,5.8-4.6,9.4-10,12.8c-0.2,0.1-0.1,0.5,0.2,0.4c9-2,10.5-8.7,13.2-14c0.3-0.5-0.1-1.1-0.7-1.1
		c-0.6,0-1.1-0.2-1.5-0.4c0-0.3-0.1-0.6-0.1-1c-0.3-1.4-2.2,0-2.7-0.9C328.2,298.1,328.8,295.8,328.5,295.8z"/>
    <path fill="#002A41" d="M272,308.8c0.4,1,3.3,2.7,5,3.3c1.6,0.5,1.8,0,3.4,3c0.2,0.4,0.8,0.1,0.7-0.3c-0.6-2.5-2.6-3.8-4.8-4.8
		c-0.4-0.2-0.4-0.2-0.4-0.1c-1-0.6-1.9-1.4-3-1.8C272.8,307.9,271.9,308.5,272,308.8z M276.4,310c0,0-0.1,0-0.1-0.1c0,0-0.1,0-0.1,0
		C276.2,309.9,276.3,309.9,276.4,310z"/>
</svg>